<?xml version="1.0" standalone="no"?>
<svg xmlns="http://www.w3.org/2000/svg" version="1.1" width="245" height="245">
	<!-- Created with https://api.qrserver.com (QR Code API, see goQR.me/api for information) -->
	<title>QR Code</title>
	<desc>BEGIN:VEVENT
SUMMARY:FrontHub, г.Ульяновск, ул.Железной Дивизии, д.5, «Хаб-Кафе»
DTSTART:20141108T110000Z
DTEND:20141108T160000Z
END:VEVENT</desc>
	<rect style="fill:rgb(255, 255, 255);fill-opacity:1" x="0" y="0" width="245" height="245" />
	<g id="elements">
		<path style="fill:rgb(0, 0, 0)" d="M 0,0 l 5,0 0,5 -5,0 z M 5,0 l 5,0 0,5 -5,0 z M 10,0 l 5,0 0,5 -5,0 z M 15,0 l 5,0 0,5 -5,0 z M 20,0 l 5,0 0,5 -5,0 z M 25,0 l 5,0 0,5 -5,0 z M 30,0 l 5,0 0,5 -5,0 z M 45,0 l 5,0 0,5 -5,0 z M 50,0 l 5,0 0,5 -5,0 z M 75,0 l 5,0 0,5 -5,0 z M 85,0 l 5,0 0,5 -5,0 z M 115,0 l 5,0 0,5 -5,0 z M 120,0 l 5,0 0,5 -5,0 z M 125,0 l 5,0 0,5 -5,0 z M 130,0 l 5,0 0,5 -5,0 z M 150,0 l 5,0 0,5 -5,0 z M 155,0 l 5,0 0,5 -5,0 z M 160,0 l 5,0 0,5 -5,0 z M 165,0 l 5,0 0,5 -5,0 z M 200,0 l 5,0 0,5 -5,0 z M 210,0 l 5,0 0,5 -5,0 z M 215,0 l 5,0 0,5 -5,0 z M 220,0 l 5,0 0,5 -5,0 z M 225,0 l 5,0 0,5 -5,0 z M 230,0 l 5,0 0,5 -5,0 z M 235,0 l 5,0 0,5 -5,0 z M 240,0 l 5,0 0,5 -5,0 z M 0,5 l 5,0 0,5 -5,0 z M 30,5 l 5,0 0,5 -5,0 z M 40,5 l 5,0 0,5 -5,0 z M 45,5 l 5,0 0,5 -5,0 z M 50,5 l 5,0 0,5 -5,0 z M 55,5 l 5,0 0,5 -5,0 z M 60,5 l 5,0 0,5 -5,0 z M 65,5 l 5,0 0,5 -5,0 z M 70,5 l 5,0 0,5 -5,0 z M 75,5 l 5,0 0,5 -5,0 z M 80,5 l 5,0 0,5 -5,0 z M 85,5 l 5,0 0,5 -5,0 z M 95,5 l 5,0 0,5 -5,0 z M 110,5 l 5,0 0,5 -5,0 z M 115,5 l 5,0 0,5 -5,0 z M 135,5 l 5,0 0,5 -5,0 z M 165,5 l 5,0 0,5 -5,0 z M 180,5 l 5,0 0,5 -5,0 z M 190,5 l 5,0 0,5 -5,0 z M 195,5 l 5,0 0,5 -5,0 z M 200,5 l 5,0 0,5 -5,0 z M 210,5 l 5,0 0,5 -5,0 z M 240,5 l 5,0 0,5 -5,0 z M 0,10 l 5,0 0,5 -5,0 z M 10,10 l 5,0 0,5 -5,0 z M 15,10 l 5,0 0,5 -5,0 z M 20,10 l 5,0 0,5 -5,0 z M 30,10 l 5,0 0,5 -5,0 z M 45,10 l 5,0 0,5 -5,0 z M 50,10 l 5,0 0,5 -5,0 z M 70,10 l 5,0 0,5 -5,0 z M 80,10 l 5,0 0,5 -5,0 z M 95,10 l 5,0 0,5 -5,0 z M 105,10 l 5,0 0,5 -5,0 z M 110,10 l 5,0 0,5 -5,0 z M 130,10 l 5,0 0,5 -5,0 z M 135,10 l 5,0 0,5 -5,0 z M 145,10 l 5,0 0,5 -5,0 z M 150,10 l 5,0 0,5 -5,0 z M 155,10 l 5,0 0,5 -5,0 z M 160,10 l 5,0 0,5 -5,0 z M 175,10 l 5,0 0,5 -5,0 z M 185,10 l 5,0 0,5 -5,0 z M 195,10 l 5,0 0,5 -5,0 z M 200,10 l 5,0 0,5 -5,0 z M 210,10 l 5,0 0,5 -5,0 z M 220,10 l 5,0 0,5 -5,0 z M 225,10 l 5,0 0,5 -5,0 z M 230,10 l 5,0 0,5 -5,0 z M 240,10 l 5,0 0,5 -5,0 z M 0,15 l 5,0 0,5 -5,0 z M 10,15 l 5,0 0,5 -5,0 z M 15,15 l 5,0 0,5 -5,0 z M 20,15 l 5,0 0,5 -5,0 z M 30,15 l 5,0 0,5 -5,0 z M 40,15 l 5,0 0,5 -5,0 z M 45,15 l 5,0 0,5 -5,0 z M 50,15 l 5,0 0,5 -5,0 z M 60,15 l 5,0 0,5 -5,0 z M 65,15 l 5,0 0,5 -5,0 z M 70,15 l 5,0 0,5 -5,0 z M 85,15 l 5,0 0,5 -5,0 z M 95,15 l 5,0 0,5 -5,0 z M 105,15 l 5,0 0,5 -5,0 z M 110,15 l 5,0 0,5 -5,0 z M 115,15 l 5,0 0,5 -5,0 z M 120,15 l 5,0 0,5 -5,0 z M 125,15 l 5,0 0,5 -5,0 z M 130,15 l 5,0 0,5 -5,0 z M 140,15 l 5,0 0,5 -5,0 z M 150,15 l 5,0 0,5 -5,0 z M 160,15 l 5,0 0,5 -5,0 z M 165,15 l 5,0 0,5 -5,0 z M 195,15 l 5,0 0,5 -5,0 z M 210,15 l 5,0 0,5 -5,0 z M 220,15 l 5,0 0,5 -5,0 z M 225,15 l 5,0 0,5 -5,0 z M 230,15 l 5,0 0,5 -5,0 z M 240,15 l 5,0 0,5 -5,0 z M 0,20 l 5,0 0,5 -5,0 z M 10,20 l 5,0 0,5 -5,0 z M 15,20 l 5,0 0,5 -5,0 z M 20,20 l 5,0 0,5 -5,0 z M 30,20 l 5,0 0,5 -5,0 z M 45,20 l 5,0 0,5 -5,0 z M 60,20 l 5,0 0,5 -5,0 z M 75,20 l 5,0 0,5 -5,0 z M 90,20 l 5,0 0,5 -5,0 z M 105,20 l 5,0 0,5 -5,0 z M 110,20 l 5,0 0,5 -5,0 z M 115,20 l 5,0 0,5 -5,0 z M 120,20 l 5,0 0,5 -5,0 z M 125,20 l 5,0 0,5 -5,0 z M 130,20 l 5,0 0,5 -5,0 z M 135,20 l 5,0 0,5 -5,0 z M 140,20 l 5,0 0,5 -5,0 z M 150,20 l 5,0 0,5 -5,0 z M 155,20 l 5,0 0,5 -5,0 z M 160,20 l 5,0 0,5 -5,0 z M 165,20 l 5,0 0,5 -5,0 z M 175,20 l 5,0 0,5 -5,0 z M 210,20 l 5,0 0,5 -5,0 z M 220,20 l 5,0 0,5 -5,0 z M 225,20 l 5,0 0,5 -5,0 z M 230,20 l 5,0 0,5 -5,0 z M 240,20 l 5,0 0,5 -5,0 z M 0,25 l 5,0 0,5 -5,0 z M 30,25 l 5,0 0,5 -5,0 z M 40,25 l 5,0 0,5 -5,0 z M 70,25 l 5,0 0,5 -5,0 z M 85,25 l 5,0 0,5 -5,0 z M 90,25 l 5,0 0,5 -5,0 z M 95,25 l 5,0 0,5 -5,0 z M 110,25 l 5,0 0,5 -5,0 z M 130,25 l 5,0 0,5 -5,0 z M 140,25 l 5,0 0,5 -5,0 z M 155,25 l 5,0 0,5 -5,0 z M 160,25 l 5,0 0,5 -5,0 z M 165,25 l 5,0 0,5 -5,0 z M 170,25 l 5,0 0,5 -5,0 z M 185,25 l 5,0 0,5 -5,0 z M 190,25 l 5,0 0,5 -5,0 z M 210,25 l 5,0 0,5 -5,0 z M 240,25 l 5,0 0,5 -5,0 z M 0,30 l 5,0 0,5 -5,0 z M 5,30 l 5,0 0,5 -5,0 z M 10,30 l 5,0 0,5 -5,0 z M 15,30 l 5,0 0,5 -5,0 z M 20,30 l 5,0 0,5 -5,0 z M 25,30 l 5,0 0,5 -5,0 z M 30,30 l 5,0 0,5 -5,0 z M 40,30 l 5,0 0,5 -5,0 z M 50,30 l 5,0 0,5 -5,0 z M 60,30 l 5,0 0,5 -5,0 z M 70,30 l 5,0 0,5 -5,0 z M 80,30 l 5,0 0,5 -5,0 z M 90,30 l 5,0 0,5 -5,0 z M 100,30 l 5,0 0,5 -5,0 z M 110,30 l 5,0 0,5 -5,0 z M 120,30 l 5,0 0,5 -5,0 z M 130,30 l 5,0 0,5 -5,0 z M 140,30 l 5,0 0,5 -5,0 z M 150,30 l 5,0 0,5 -5,0 z M 160,30 l 5,0 0,5 -5,0 z M 170,30 l 5,0 0,5 -5,0 z M 180,30 l 5,0 0,5 -5,0 z M 190,30 l 5,0 0,5 -5,0 z M 200,30 l 5,0 0,5 -5,0 z M 210,30 l 5,0 0,5 -5,0 z M 215,30 l 5,0 0,5 -5,0 z M 220,30 l 5,0 0,5 -5,0 z M 225,30 l 5,0 0,5 -5,0 z M 230,30 l 5,0 0,5 -5,0 z M 235,30 l 5,0 0,5 -5,0 z M 240,30 l 5,0 0,5 -5,0 z M 45,35 l 5,0 0,5 -5,0 z M 55,35 l 5,0 0,5 -5,0 z M 60,35 l 5,0 0,5 -5,0 z M 65,35 l 5,0 0,5 -5,0 z M 70,35 l 5,0 0,5 -5,0 z M 75,35 l 5,0 0,5 -5,0 z M 90,35 l 5,0 0,5 -5,0 z M 110,35 l 5,0 0,5 -5,0 z M 130,35 l 5,0 0,5 -5,0 z M 135,35 l 5,0 0,5 -5,0 z M 140,35 l 5,0 0,5 -5,0 z M 155,35 l 5,0 0,5 -5,0 z M 160,35 l 5,0 0,5 -5,0 z M 180,35 l 5,0 0,5 -5,0 z M 200,35 l 5,0 0,5 -5,0 z M 0,40 l 5,0 0,5 -5,0 z M 5,40 l 5,0 0,5 -5,0 z M 10,40 l 5,0 0,5 -5,0 z M 15,40 l 5,0 0,5 -5,0 z M 20,40 l 5,0 0,5 -5,0 z M 30,40 l 5,0 0,5 -5,0 z M 35,40 l 5,0 0,5 -5,0 z M 40,40 l 5,0 0,5 -5,0 z M 50,40 l 5,0 0,5 -5,0 z M 55,40 l 5,0 0,5 -5,0 z M 75,40 l 5,0 0,5 -5,0 z M 80,40 l 5,0 0,5 -5,0 z M 90,40 l 5,0 0,5 -5,0 z M 100,40 l 5,0 0,5 -5,0 z M 110,40 l 5,0 0,5 -5,0 z M 115,40 l 5,0 0,5 -5,0 z M 120,40 l 5,0 0,5 -5,0 z M 125,40 l 5,0 0,5 -5,0 z M 130,40 l 5,0 0,5 -5,0 z M 135,40 l 5,0 0,5 -5,0 z M 150,40 l 5,0 0,5 -5,0 z M 165,40 l 5,0 0,5 -5,0 z M 205,40 l 5,0 0,5 -5,0 z M 215,40 l 5,0 0,5 -5,0 z M 225,40 l 5,0 0,5 -5,0 z M 235,40 l 5,0 0,5 -5,0 z M 0,45 l 5,0 0,5 -5,0 z M 5,45 l 5,0 0,5 -5,0 z M 10,45 l 5,0 0,5 -5,0 z M 15,45 l 5,0 0,5 -5,0 z M 35,45 l 5,0 0,5 -5,0 z M 40,45 l 5,0 0,5 -5,0 z M 45,45 l 5,0 0,5 -5,0 z M 50,45 l 5,0 0,5 -5,0 z M 75,45 l 5,0 0,5 -5,0 z M 120,45 l 5,0 0,5 -5,0 z M 130,45 l 5,0 0,5 -5,0 z M 135,45 l 5,0 0,5 -5,0 z M 140,45 l 5,0 0,5 -5,0 z M 145,45 l 5,0 0,5 -5,0 z M 155,45 l 5,0 0,5 -5,0 z M 180,45 l 5,0 0,5 -5,0 z M 190,45 l 5,0 0,5 -5,0 z M 195,45 l 5,0 0,5 -5,0 z M 210,45 l 5,0 0,5 -5,0 z M 230,45 l 5,0 0,5 -5,0 z M 235,45 l 5,0 0,5 -5,0 z M 0,50 l 5,0 0,5 -5,0 z M 15,50 l 5,0 0,5 -5,0 z M 30,50 l 5,0 0,5 -5,0 z M 35,50 l 5,0 0,5 -5,0 z M 45,50 l 5,0 0,5 -5,0 z M 50,50 l 5,0 0,5 -5,0 z M 75,50 l 5,0 0,5 -5,0 z M 90,50 l 5,0 0,5 -5,0 z M 105,50 l 5,0 0,5 -5,0 z M 115,50 l 5,0 0,5 -5,0 z M 120,50 l 5,0 0,5 -5,0 z M 125,50 l 5,0 0,5 -5,0 z M 130,50 l 5,0 0,5 -5,0 z M 135,50 l 5,0 0,5 -5,0 z M 140,50 l 5,0 0,5 -5,0 z M 145,50 l 5,0 0,5 -5,0 z M 150,50 l 5,0 0,5 -5,0 z M 160,50 l 5,0 0,5 -5,0 z M 185,50 l 5,0 0,5 -5,0 z M 195,50 l 5,0 0,5 -5,0 z M 205,50 l 5,0 0,5 -5,0 z M 215,50 l 5,0 0,5 -5,0 z M 220,50 l 5,0 0,5 -5,0 z M 235,50 l 5,0 0,5 -5,0 z M 240,50 l 5,0 0,5 -5,0 z M 5,55 l 5,0 0,5 -5,0 z M 15,55 l 5,0 0,5 -5,0 z M 20,55 l 5,0 0,5 -5,0 z M 25,55 l 5,0 0,5 -5,0 z M 65,55 l 5,0 0,5 -5,0 z M 85,55 l 5,0 0,5 -5,0 z M 90,55 l 5,0 0,5 -5,0 z M 95,55 l 5,0 0,5 -5,0 z M 105,55 l 5,0 0,5 -5,0 z M 135,55 l 5,0 0,5 -5,0 z M 140,55 l 5,0 0,5 -5,0 z M 145,55 l 5,0 0,5 -5,0 z M 160,55 l 5,0 0,5 -5,0 z M 165,55 l 5,0 0,5 -5,0 z M 170,55 l 5,0 0,5 -5,0 z M 180,55 l 5,0 0,5 -5,0 z M 190,55 l 5,0 0,5 -5,0 z M 195,55 l 5,0 0,5 -5,0 z M 200,55 l 5,0 0,5 -5,0 z M 215,55 l 5,0 0,5 -5,0 z M 230,55 l 5,0 0,5 -5,0 z M 235,55 l 5,0 0,5 -5,0 z M 240,55 l 5,0 0,5 -5,0 z M 5,60 l 5,0 0,5 -5,0 z M 15,60 l 5,0 0,5 -5,0 z M 30,60 l 5,0 0,5 -5,0 z M 55,60 l 5,0 0,5 -5,0 z M 75,60 l 5,0 0,5 -5,0 z M 90,60 l 5,0 0,5 -5,0 z M 105,60 l 5,0 0,5 -5,0 z M 110,60 l 5,0 0,5 -5,0 z M 120,60 l 5,0 0,5 -5,0 z M 135,60 l 5,0 0,5 -5,0 z M 150,60 l 5,0 0,5 -5,0 z M 165,60 l 5,0 0,5 -5,0 z M 175,60 l 5,0 0,5 -5,0 z M 185,60 l 5,0 0,5 -5,0 z M 190,60 l 5,0 0,5 -5,0 z M 220,60 l 5,0 0,5 -5,0 z M 225,60 l 5,0 0,5 -5,0 z M 230,60 l 5,0 0,5 -5,0 z M 0,65 l 5,0 0,5 -5,0 z M 5,65 l 5,0 0,5 -5,0 z M 35,65 l 5,0 0,5 -5,0 z M 40,65 l 5,0 0,5 -5,0 z M 45,65 l 5,0 0,5 -5,0 z M 50,65 l 5,0 0,5 -5,0 z M 55,65 l 5,0 0,5 -5,0 z M 65,65 l 5,0 0,5 -5,0 z M 80,65 l 5,0 0,5 -5,0 z M 85,65 l 5,0 0,5 -5,0 z M 90,65 l 5,0 0,5 -5,0 z M 95,65 l 5,0 0,5 -5,0 z M 100,65 l 5,0 0,5 -5,0 z M 120,65 l 5,0 0,5 -5,0 z M 135,65 l 5,0 0,5 -5,0 z M 170,65 l 5,0 0,5 -5,0 z M 180,65 l 5,0 0,5 -5,0 z M 185,65 l 5,0 0,5 -5,0 z M 190,65 l 5,0 0,5 -5,0 z M 195,65 l 5,0 0,5 -5,0 z M 210,65 l 5,0 0,5 -5,0 z M 240,65 l 5,0 0,5 -5,0 z M 5,70 l 5,0 0,5 -5,0 z M 25,70 l 5,0 0,5 -5,0 z M 30,70 l 5,0 0,5 -5,0 z M 35,70 l 5,0 0,5 -5,0 z M 40,70 l 5,0 0,5 -5,0 z M 50,70 l 5,0 0,5 -5,0 z M 55,70 l 5,0 0,5 -5,0 z M 70,70 l 5,0 0,5 -5,0 z M 75,70 l 5,0 0,5 -5,0 z M 80,70 l 5,0 0,5 -5,0 z M 85,70 l 5,0 0,5 -5,0 z M 100,70 l 5,0 0,5 -5,0 z M 115,70 l 5,0 0,5 -5,0 z M 120,70 l 5,0 0,5 -5,0 z M 145,70 l 5,0 0,5 -5,0 z M 155,70 l 5,0 0,5 -5,0 z M 170,70 l 5,0 0,5 -5,0 z M 175,70 l 5,0 0,5 -5,0 z M 185,70 l 5,0 0,5 -5,0 z M 195,70 l 5,0 0,5 -5,0 z M 205,70 l 5,0 0,5 -5,0 z M 210,70 l 5,0 0,5 -5,0 z M 225,70 l 5,0 0,5 -5,0 z M 240,70 l 5,0 0,5 -5,0 z M 0,75 l 5,0 0,5 -5,0 z M 20,75 l 5,0 0,5 -5,0 z M 40,75 l 5,0 0,5 -5,0 z M 60,75 l 5,0 0,5 -5,0 z M 80,75 l 5,0 0,5 -5,0 z M 95,75 l 5,0 0,5 -5,0 z M 100,75 l 5,0 0,5 -5,0 z M 105,75 l 5,0 0,5 -5,0 z M 110,75 l 5,0 0,5 -5,0 z M 115,75 l 5,0 0,5 -5,0 z M 120,75 l 5,0 0,5 -5,0 z M 125,75 l 5,0 0,5 -5,0 z M 145,75 l 5,0 0,5 -5,0 z M 150,75 l 5,0 0,5 -5,0 z M 155,75 l 5,0 0,5 -5,0 z M 165,75 l 5,0 0,5 -5,0 z M 175,75 l 5,0 0,5 -5,0 z M 180,75 l 5,0 0,5 -5,0 z M 190,75 l 5,0 0,5 -5,0 z M 195,75 l 5,0 0,5 -5,0 z M 200,75 l 5,0 0,5 -5,0 z M 205,75 l 5,0 0,5 -5,0 z M 210,75 l 5,0 0,5 -5,0 z M 220,75 l 5,0 0,5 -5,0 z M 225,75 l 5,0 0,5 -5,0 z M 235,75 l 5,0 0,5 -5,0 z M 240,75 l 5,0 0,5 -5,0 z M 10,80 l 5,0 0,5 -5,0 z M 20,80 l 5,0 0,5 -5,0 z M 30,80 l 5,0 0,5 -5,0 z M 40,80 l 5,0 0,5 -5,0 z M 45,80 l 5,0 0,5 -5,0 z M 55,80 l 5,0 0,5 -5,0 z M 60,80 l 5,0 0,5 -5,0 z M 80,80 l 5,0 0,5 -5,0 z M 90,80 l 5,0 0,5 -5,0 z M 95,80 l 5,0 0,5 -5,0 z M 100,80 l 5,0 0,5 -5,0 z M 110,80 l 5,0 0,5 -5,0 z M 135,80 l 5,0 0,5 -5,0 z M 150,80 l 5,0 0,5 -5,0 z M 175,80 l 5,0 0,5 -5,0 z M 185,80 l 5,0 0,5 -5,0 z M 195,80 l 5,0 0,5 -5,0 z M 210,80 l 5,0 0,5 -5,0 z M 225,80 l 5,0 0,5 -5,0 z M 230,80 l 5,0 0,5 -5,0 z M 235,80 l 5,0 0,5 -5,0 z M 240,80 l 5,0 0,5 -5,0 z M 0,85 l 5,0 0,5 -5,0 z M 5,85 l 5,0 0,5 -5,0 z M 15,85 l 5,0 0,5 -5,0 z M 20,85 l 5,0 0,5 -5,0 z M 55,85 l 5,0 0,5 -5,0 z M 60,85 l 5,0 0,5 -5,0 z M 65,85 l 5,0 0,5 -5,0 z M 70,85 l 5,0 0,5 -5,0 z M 75,85 l 5,0 0,5 -5,0 z M 85,85 l 5,0 0,5 -5,0 z M 110,85 l 5,0 0,5 -5,0 z M 145,85 l 5,0 0,5 -5,0 z M 165,85 l 5,0 0,5 -5,0 z M 170,85 l 5,0 0,5 -5,0 z M 180,85 l 5,0 0,5 -5,0 z M 190,85 l 5,0 0,5 -5,0 z M 195,85 l 5,0 0,5 -5,0 z M 200,85 l 5,0 0,5 -5,0 z M 205,85 l 5,0 0,5 -5,0 z M 210,85 l 5,0 0,5 -5,0 z M 230,85 l 5,0 0,5 -5,0 z M 0,90 l 5,0 0,5 -5,0 z M 10,90 l 5,0 0,5 -5,0 z M 15,90 l 5,0 0,5 -5,0 z M 25,90 l 5,0 0,5 -5,0 z M 30,90 l 5,0 0,5 -5,0 z M 35,90 l 5,0 0,5 -5,0 z M 40,90 l 5,0 0,5 -5,0 z M 45,90 l 5,0 0,5 -5,0 z M 50,90 l 5,0 0,5 -5,0 z M 65,90 l 5,0 0,5 -5,0 z M 70,90 l 5,0 0,5 -5,0 z M 75,90 l 5,0 0,5 -5,0 z M 80,90 l 5,0 0,5 -5,0 z M 85,90 l 5,0 0,5 -5,0 z M 120,90 l 5,0 0,5 -5,0 z M 130,90 l 5,0 0,5 -5,0 z M 165,90 l 5,0 0,5 -5,0 z M 170,90 l 5,0 0,5 -5,0 z M 175,90 l 5,0 0,5 -5,0 z M 190,90 l 5,0 0,5 -5,0 z M 195,90 l 5,0 0,5 -5,0 z M 200,90 l 5,0 0,5 -5,0 z M 215,90 l 5,0 0,5 -5,0 z M 225,90 l 5,0 0,5 -5,0 z M 240,90 l 5,0 0,5 -5,0 z M 20,95 l 5,0 0,5 -5,0 z M 45,95 l 5,0 0,5 -5,0 z M 50,95 l 5,0 0,5 -5,0 z M 70,95 l 5,0 0,5 -5,0 z M 80,95 l 5,0 0,5 -5,0 z M 100,95 l 5,0 0,5 -5,0 z M 110,95 l 5,0 0,5 -5,0 z M 115,95 l 5,0 0,5 -5,0 z M 140,95 l 5,0 0,5 -5,0 z M 145,95 l 5,0 0,5 -5,0 z M 150,95 l 5,0 0,5 -5,0 z M 155,95 l 5,0 0,5 -5,0 z M 160,95 l 5,0 0,5 -5,0 z M 190,95 l 5,0 0,5 -5,0 z M 195,95 l 5,0 0,5 -5,0 z M 205,95 l 5,0 0,5 -5,0 z M 210,95 l 5,0 0,5 -5,0 z M 225,95 l 5,0 0,5 -5,0 z M 240,95 l 5,0 0,5 -5,0 z M 0,100 l 5,0 0,5 -5,0 z M 5,100 l 5,0 0,5 -5,0 z M 30,100 l 5,0 0,5 -5,0 z M 35,100 l 5,0 0,5 -5,0 z M 45,100 l 5,0 0,5 -5,0 z M 50,100 l 5,0 0,5 -5,0 z M 55,100 l 5,0 0,5 -5,0 z M 60,100 l 5,0 0,5 -5,0 z M 65,100 l 5,0 0,5 -5,0 z M 70,100 l 5,0 0,5 -5,0 z M 85,100 l 5,0 0,5 -5,0 z M 95,100 l 5,0 0,5 -5,0 z M 110,100 l 5,0 0,5 -5,0 z M 115,100 l 5,0 0,5 -5,0 z M 140,100 l 5,0 0,5 -5,0 z M 150,100 l 5,0 0,5 -5,0 z M 155,100 l 5,0 0,5 -5,0 z M 165,100 l 5,0 0,5 -5,0 z M 180,100 l 5,0 0,5 -5,0 z M 185,100 l 5,0 0,5 -5,0 z M 190,100 l 5,0 0,5 -5,0 z M 210,100 l 5,0 0,5 -5,0 z M 215,100 l 5,0 0,5 -5,0 z M 225,100 l 5,0 0,5 -5,0 z M 235,100 l 5,0 0,5 -5,0 z M 240,100 l 5,0 0,5 -5,0 z M 0,105 l 5,0 0,5 -5,0 z M 5,105 l 5,0 0,5 -5,0 z M 10,105 l 5,0 0,5 -5,0 z M 20,105 l 5,0 0,5 -5,0 z M 25,105 l 5,0 0,5 -5,0 z M 35,105 l 5,0 0,5 -5,0 z M 40,105 l 5,0 0,5 -5,0 z M 45,105 l 5,0 0,5 -5,0 z M 60,105 l 5,0 0,5 -5,0 z M 75,105 l 5,0 0,5 -5,0 z M 90,105 l 5,0 0,5 -5,0 z M 105,105 l 5,0 0,5 -5,0 z M 135,105 l 5,0 0,5 -5,0 z M 145,105 l 5,0 0,5 -5,0 z M 150,105 l 5,0 0,5 -5,0 z M 155,105 l 5,0 0,5 -5,0 z M 160,105 l 5,0 0,5 -5,0 z M 165,105 l 5,0 0,5 -5,0 z M 180,105 l 5,0 0,5 -5,0 z M 190,105 l 5,0 0,5 -5,0 z M 195,105 l 5,0 0,5 -5,0 z M 205,105 l 5,0 0,5 -5,0 z M 230,105 l 5,0 0,5 -5,0 z M 240,105 l 5,0 0,5 -5,0 z M 10,110 l 5,0 0,5 -5,0 z M 20,110 l 5,0 0,5 -5,0 z M 25,110 l 5,0 0,5 -5,0 z M 30,110 l 5,0 0,5 -5,0 z M 35,110 l 5,0 0,5 -5,0 z M 40,110 l 5,0 0,5 -5,0 z M 60,110 l 5,0 0,5 -5,0 z M 65,110 l 5,0 0,5 -5,0 z M 85,110 l 5,0 0,5 -5,0 z M 90,110 l 5,0 0,5 -5,0 z M 95,110 l 5,0 0,5 -5,0 z M 105,110 l 5,0 0,5 -5,0 z M 110,110 l 5,0 0,5 -5,0 z M 115,110 l 5,0 0,5 -5,0 z M 120,110 l 5,0 0,5 -5,0 z M 125,110 l 5,0 0,5 -5,0 z M 130,110 l 5,0 0,5 -5,0 z M 135,110 l 5,0 0,5 -5,0 z M 155,110 l 5,0 0,5 -5,0 z M 160,110 l 5,0 0,5 -5,0 z M 165,110 l 5,0 0,5 -5,0 z M 170,110 l 5,0 0,5 -5,0 z M 175,110 l 5,0 0,5 -5,0 z M 180,110 l 5,0 0,5 -5,0 z M 185,110 l 5,0 0,5 -5,0 z M 200,110 l 5,0 0,5 -5,0 z M 205,110 l 5,0 0,5 -5,0 z M 210,110 l 5,0 0,5 -5,0 z M 215,110 l 5,0 0,5 -5,0 z M 220,110 l 5,0 0,5 -5,0 z M 225,110 l 5,0 0,5 -5,0 z M 235,110 l 5,0 0,5 -5,0 z M 0,115 l 5,0 0,5 -5,0 z M 5,115 l 5,0 0,5 -5,0 z M 10,115 l 5,0 0,5 -5,0 z M 15,115 l 5,0 0,5 -5,0 z M 20,115 l 5,0 0,5 -5,0 z M 40,115 l 5,0 0,5 -5,0 z M 45,115 l 5,0 0,5 -5,0 z M 55,115 l 5,0 0,5 -5,0 z M 60,115 l 5,0 0,5 -5,0 z M 75,115 l 5,0 0,5 -5,0 z M 90,115 l 5,0 0,5 -5,0 z M 105,115 l 5,0 0,5 -5,0 z M 110,115 l 5,0 0,5 -5,0 z M 130,115 l 5,0 0,5 -5,0 z M 135,115 l 5,0 0,5 -5,0 z M 155,115 l 5,0 0,5 -5,0 z M 165,115 l 5,0 0,5 -5,0 z M 190,115 l 5,0 0,5 -5,0 z M 195,115 l 5,0 0,5 -5,0 z M 200,115 l 5,0 0,5 -5,0 z M 220,115 l 5,0 0,5 -5,0 z M 225,115 l 5,0 0,5 -5,0 z M 235,115 l 5,0 0,5 -5,0 z M 240,115 l 5,0 0,5 -5,0 z M 10,120 l 5,0 0,5 -5,0 z M 20,120 l 5,0 0,5 -5,0 z M 30,120 l 5,0 0,5 -5,0 z M 40,120 l 5,0 0,5 -5,0 z M 45,120 l 5,0 0,5 -5,0 z M 55,120 l 5,0 0,5 -5,0 z M 75,120 l 5,0 0,5 -5,0 z M 80,120 l 5,0 0,5 -5,0 z M 90,120 l 5,0 0,5 -5,0 z M 105,120 l 5,0 0,5 -5,0 z M 110,120 l 5,0 0,5 -5,0 z M 120,120 l 5,0 0,5 -5,0 z M 130,120 l 5,0 0,5 -5,0 z M 165,120 l 5,0 0,5 -5,0 z M 180,120 l 5,0 0,5 -5,0 z M 200,120 l 5,0 0,5 -5,0 z M 210,120 l 5,0 0,5 -5,0 z M 220,120 l 5,0 0,5 -5,0 z M 230,120 l 5,0 0,5 -5,0 z M 235,120 l 5,0 0,5 -5,0 z M 240,120 l 5,0 0,5 -5,0 z M 0,125 l 5,0 0,5 -5,0 z M 5,125 l 5,0 0,5 -5,0 z M 10,125 l 5,0 0,5 -5,0 z M 15,125 l 5,0 0,5 -5,0 z M 20,125 l 5,0 0,5 -5,0 z M 40,125 l 5,0 0,5 -5,0 z M 55,125 l 5,0 0,5 -5,0 z M 60,125 l 5,0 0,5 -5,0 z M 70,125 l 5,0 0,5 -5,0 z M 75,125 l 5,0 0,5 -5,0 z M 95,125 l 5,0 0,5 -5,0 z M 105,125 l 5,0 0,5 -5,0 z M 110,125 l 5,0 0,5 -5,0 z M 130,125 l 5,0 0,5 -5,0 z M 135,125 l 5,0 0,5 -5,0 z M 150,125 l 5,0 0,5 -5,0 z M 155,125 l 5,0 0,5 -5,0 z M 175,125 l 5,0 0,5 -5,0 z M 180,125 l 5,0 0,5 -5,0 z M 185,125 l 5,0 0,5 -5,0 z M 200,125 l 5,0 0,5 -5,0 z M 220,125 l 5,0 0,5 -5,0 z M 230,125 l 5,0 0,5 -5,0 z M 235,125 l 5,0 0,5 -5,0 z M 5,130 l 5,0 0,5 -5,0 z M 10,130 l 5,0 0,5 -5,0 z M 15,130 l 5,0 0,5 -5,0 z M 20,130 l 5,0 0,5 -5,0 z M 25,130 l 5,0 0,5 -5,0 z M 30,130 l 5,0 0,5 -5,0 z M 35,130 l 5,0 0,5 -5,0 z M 40,130 l 5,0 0,5 -5,0 z M 45,130 l 5,0 0,5 -5,0 z M 55,130 l 5,0 0,5 -5,0 z M 60,130 l 5,0 0,5 -5,0 z M 75,130 l 5,0 0,5 -5,0 z M 90,130 l 5,0 0,5 -5,0 z M 100,130 l 5,0 0,5 -5,0 z M 110,130 l 5,0 0,5 -5,0 z M 115,130 l 5,0 0,5 -5,0 z M 120,130 l 5,0 0,5 -5,0 z M 125,130 l 5,0 0,5 -5,0 z M 130,130 l 5,0 0,5 -5,0 z M 135,130 l 5,0 0,5 -5,0 z M 155,130 l 5,0 0,5 -5,0 z M 195,130 l 5,0 0,5 -5,0 z M 200,130 l 5,0 0,5 -5,0 z M 205,130 l 5,0 0,5 -5,0 z M 210,130 l 5,0 0,5 -5,0 z M 215,130 l 5,0 0,5 -5,0 z M 220,130 l 5,0 0,5 -5,0 z M 235,130 l 5,0 0,5 -5,0 z M 0,135 l 5,0 0,5 -5,0 z M 5,135 l 5,0 0,5 -5,0 z M 20,135 l 5,0 0,5 -5,0 z M 25,135 l 5,0 0,5 -5,0 z M 40,135 l 5,0 0,5 -5,0 z M 50,135 l 5,0 0,5 -5,0 z M 55,135 l 5,0 0,5 -5,0 z M 60,135 l 5,0 0,5 -5,0 z M 65,135 l 5,0 0,5 -5,0 z M 85,135 l 5,0 0,5 -5,0 z M 90,135 l 5,0 0,5 -5,0 z M 95,135 l 5,0 0,5 -5,0 z M 100,135 l 5,0 0,5 -5,0 z M 105,135 l 5,0 0,5 -5,0 z M 110,135 l 5,0 0,5 -5,0 z M 115,135 l 5,0 0,5 -5,0 z M 125,135 l 5,0 0,5 -5,0 z M 135,135 l 5,0 0,5 -5,0 z M 140,135 l 5,0 0,5 -5,0 z M 150,135 l 5,0 0,5 -5,0 z M 160,135 l 5,0 0,5 -5,0 z M 170,135 l 5,0 0,5 -5,0 z M 175,135 l 5,0 0,5 -5,0 z M 185,135 l 5,0 0,5 -5,0 z M 190,135 l 5,0 0,5 -5,0 z M 195,135 l 5,0 0,5 -5,0 z M 200,135 l 5,0 0,5 -5,0 z M 205,135 l 5,0 0,5 -5,0 z M 215,135 l 5,0 0,5 -5,0 z M 225,135 l 5,0 0,5 -5,0 z M 230,135 l 5,0 0,5 -5,0 z M 15,140 l 5,0 0,5 -5,0 z M 20,140 l 5,0 0,5 -5,0 z M 25,140 l 5,0 0,5 -5,0 z M 30,140 l 5,0 0,5 -5,0 z M 45,140 l 5,0 0,5 -5,0 z M 55,140 l 5,0 0,5 -5,0 z M 75,140 l 5,0 0,5 -5,0 z M 90,140 l 5,0 0,5 -5,0 z M 105,140 l 5,0 0,5 -5,0 z M 110,140 l 5,0 0,5 -5,0 z M 120,140 l 5,0 0,5 -5,0 z M 125,140 l 5,0 0,5 -5,0 z M 150,140 l 5,0 0,5 -5,0 z M 165,140 l 5,0 0,5 -5,0 z M 170,140 l 5,0 0,5 -5,0 z M 180,140 l 5,0 0,5 -5,0 z M 185,140 l 5,0 0,5 -5,0 z M 210,140 l 5,0 0,5 -5,0 z M 215,140 l 5,0 0,5 -5,0 z M 220,140 l 5,0 0,5 -5,0 z M 225,140 l 5,0 0,5 -5,0 z M 0,145 l 5,0 0,5 -5,0 z M 5,145 l 5,0 0,5 -5,0 z M 40,145 l 5,0 0,5 -5,0 z M 50,145 l 5,0 0,5 -5,0 z M 55,145 l 5,0 0,5 -5,0 z M 60,145 l 5,0 0,5 -5,0 z M 65,145 l 5,0 0,5 -5,0 z M 80,145 l 5,0 0,5 -5,0 z M 85,145 l 5,0 0,5 -5,0 z M 90,145 l 5,0 0,5 -5,0 z M 95,145 l 5,0 0,5 -5,0 z M 100,145 l 5,0 0,5 -5,0 z M 105,145 l 5,0 0,5 -5,0 z M 120,145 l 5,0 0,5 -5,0 z M 125,145 l 5,0 0,5 -5,0 z M 135,145 l 5,0 0,5 -5,0 z M 145,145 l 5,0 0,5 -5,0 z M 150,145 l 5,0 0,5 -5,0 z M 170,145 l 5,0 0,5 -5,0 z M 180,145 l 5,0 0,5 -5,0 z M 200,145 l 5,0 0,5 -5,0 z M 205,145 l 5,0 0,5 -5,0 z M 210,145 l 5,0 0,5 -5,0 z M 220,145 l 5,0 0,5 -5,0 z M 235,145 l 5,0 0,5 -5,0 z M 240,145 l 5,0 0,5 -5,0 z M 0,150 l 5,0 0,5 -5,0 z M 10,150 l 5,0 0,5 -5,0 z M 25,150 l 5,0 0,5 -5,0 z M 30,150 l 5,0 0,5 -5,0 z M 35,150 l 5,0 0,5 -5,0 z M 40,150 l 5,0 0,5 -5,0 z M 45,150 l 5,0 0,5 -5,0 z M 50,150 l 5,0 0,5 -5,0 z M 65,150 l 5,0 0,5 -5,0 z M 70,150 l 5,0 0,5 -5,0 z M 75,150 l 5,0 0,5 -5,0 z M 80,150 l 5,0 0,5 -5,0 z M 85,150 l 5,0 0,5 -5,0 z M 100,150 l 5,0 0,5 -5,0 z M 115,150 l 5,0 0,5 -5,0 z M 120,150 l 5,0 0,5 -5,0 z M 130,150 l 5,0 0,5 -5,0 z M 145,150 l 5,0 0,5 -5,0 z M 155,150 l 5,0 0,5 -5,0 z M 170,150 l 5,0 0,5 -5,0 z M 185,150 l 5,0 0,5 -5,0 z M 200,150 l 5,0 0,5 -5,0 z M 210,150 l 5,0 0,5 -5,0 z M 220,150 l 5,0 0,5 -5,0 z M 225,150 l 5,0 0,5 -5,0 z M 235,150 l 5,0 0,5 -5,0 z M 15,155 l 5,0 0,5 -5,0 z M 40,155 l 5,0 0,5 -5,0 z M 45,155 l 5,0 0,5 -5,0 z M 50,155 l 5,0 0,5 -5,0 z M 65,155 l 5,0 0,5 -5,0 z M 80,155 l 5,0 0,5 -5,0 z M 90,155 l 5,0 0,5 -5,0 z M 95,155 l 5,0 0,5 -5,0 z M 100,155 l 5,0 0,5 -5,0 z M 105,155 l 5,0 0,5 -5,0 z M 120,155 l 5,0 0,5 -5,0 z M 125,155 l 5,0 0,5 -5,0 z M 130,155 l 5,0 0,5 -5,0 z M 135,155 l 5,0 0,5 -5,0 z M 140,155 l 5,0 0,5 -5,0 z M 150,155 l 5,0 0,5 -5,0 z M 165,155 l 5,0 0,5 -5,0 z M 170,155 l 5,0 0,5 -5,0 z M 175,155 l 5,0 0,5 -5,0 z M 180,155 l 5,0 0,5 -5,0 z M 190,155 l 5,0 0,5 -5,0 z M 205,155 l 5,0 0,5 -5,0 z M 215,155 l 5,0 0,5 -5,0 z M 225,155 l 5,0 0,5 -5,0 z M 235,155 l 5,0 0,5 -5,0 z M 5,160 l 5,0 0,5 -5,0 z M 15,160 l 5,0 0,5 -5,0 z M 20,160 l 5,0 0,5 -5,0 z M 30,160 l 5,0 0,5 -5,0 z M 35,160 l 5,0 0,5 -5,0 z M 40,160 l 5,0 0,5 -5,0 z M 50,160 l 5,0 0,5 -5,0 z M 55,160 l 5,0 0,5 -5,0 z M 60,160 l 5,0 0,5 -5,0 z M 80,160 l 5,0 0,5 -5,0 z M 100,160 l 5,0 0,5 -5,0 z M 110,160 l 5,0 0,5 -5,0 z M 135,160 l 5,0 0,5 -5,0 z M 150,160 l 5,0 0,5 -5,0 z M 160,160 l 5,0 0,5 -5,0 z M 165,160 l 5,0 0,5 -5,0 z M 170,160 l 5,0 0,5 -5,0 z M 180,160 l 5,0 0,5 -5,0 z M 185,160 l 5,0 0,5 -5,0 z M 195,160 l 5,0 0,5 -5,0 z M 205,160 l 5,0 0,5 -5,0 z M 215,160 l 5,0 0,5 -5,0 z M 225,160 l 5,0 0,5 -5,0 z M 230,160 l 5,0 0,5 -5,0 z M 235,160 l 5,0 0,5 -5,0 z M 0,165 l 5,0 0,5 -5,0 z M 5,165 l 5,0 0,5 -5,0 z M 15,165 l 5,0 0,5 -5,0 z M 20,165 l 5,0 0,5 -5,0 z M 35,165 l 5,0 0,5 -5,0 z M 40,165 l 5,0 0,5 -5,0 z M 45,165 l 5,0 0,5 -5,0 z M 55,165 l 5,0 0,5 -5,0 z M 60,165 l 5,0 0,5 -5,0 z M 80,165 l 5,0 0,5 -5,0 z M 85,165 l 5,0 0,5 -5,0 z M 105,165 l 5,0 0,5 -5,0 z M 120,165 l 5,0 0,5 -5,0 z M 125,165 l 5,0 0,5 -5,0 z M 135,165 l 5,0 0,5 -5,0 z M 145,165 l 5,0 0,5 -5,0 z M 150,165 l 5,0 0,5 -5,0 z M 165,165 l 5,0 0,5 -5,0 z M 180,165 l 5,0 0,5 -5,0 z M 185,165 l 5,0 0,5 -5,0 z M 190,165 l 5,0 0,5 -5,0 z M 200,165 l 5,0 0,5 -5,0 z M 205,165 l 5,0 0,5 -5,0 z M 210,165 l 5,0 0,5 -5,0 z M 225,165 l 5,0 0,5 -5,0 z M 5,170 l 5,0 0,5 -5,0 z M 10,170 l 5,0 0,5 -5,0 z M 30,170 l 5,0 0,5 -5,0 z M 35,170 l 5,0 0,5 -5,0 z M 45,170 l 5,0 0,5 -5,0 z M 60,170 l 5,0 0,5 -5,0 z M 65,170 l 5,0 0,5 -5,0 z M 70,170 l 5,0 0,5 -5,0 z M 85,170 l 5,0 0,5 -5,0 z M 105,170 l 5,0 0,5 -5,0 z M 120,170 l 5,0 0,5 -5,0 z M 130,170 l 5,0 0,5 -5,0 z M 135,170 l 5,0 0,5 -5,0 z M 140,170 l 5,0 0,5 -5,0 z M 150,170 l 5,0 0,5 -5,0 z M 165,170 l 5,0 0,5 -5,0 z M 175,170 l 5,0 0,5 -5,0 z M 180,170 l 5,0 0,5 -5,0 z M 185,170 l 5,0 0,5 -5,0 z M 195,170 l 5,0 0,5 -5,0 z M 210,170 l 5,0 0,5 -5,0 z M 220,170 l 5,0 0,5 -5,0 z M 5,175 l 5,0 0,5 -5,0 z M 10,175 l 5,0 0,5 -5,0 z M 15,175 l 5,0 0,5 -5,0 z M 35,175 l 5,0 0,5 -5,0 z M 45,175 l 5,0 0,5 -5,0 z M 50,175 l 5,0 0,5 -5,0 z M 60,175 l 5,0 0,5 -5,0 z M 70,175 l 5,0 0,5 -5,0 z M 80,175 l 5,0 0,5 -5,0 z M 95,175 l 5,0 0,5 -5,0 z M 115,175 l 5,0 0,5 -5,0 z M 120,175 l 5,0 0,5 -5,0 z M 130,175 l 5,0 0,5 -5,0 z M 140,175 l 5,0 0,5 -5,0 z M 145,175 l 5,0 0,5 -5,0 z M 150,175 l 5,0 0,5 -5,0 z M 155,175 l 5,0 0,5 -5,0 z M 160,175 l 5,0 0,5 -5,0 z M 180,175 l 5,0 0,5 -5,0 z M 210,175 l 5,0 0,5 -5,0 z M 225,175 l 5,0 0,5 -5,0 z M 230,175 l 5,0 0,5 -5,0 z M 240,175 l 5,0 0,5 -5,0 z M 5,180 l 5,0 0,5 -5,0 z M 10,180 l 5,0 0,5 -5,0 z M 30,180 l 5,0 0,5 -5,0 z M 35,180 l 5,0 0,5 -5,0 z M 45,180 l 5,0 0,5 -5,0 z M 55,180 l 5,0 0,5 -5,0 z M 60,180 l 5,0 0,5 -5,0 z M 65,180 l 5,0 0,5 -5,0 z M 70,180 l 5,0 0,5 -5,0 z M 85,180 l 5,0 0,5 -5,0 z M 110,180 l 5,0 0,5 -5,0 z M 115,180 l 5,0 0,5 -5,0 z M 120,180 l 5,0 0,5 -5,0 z M 125,180 l 5,0 0,5 -5,0 z M 135,180 l 5,0 0,5 -5,0 z M 150,180 l 5,0 0,5 -5,0 z M 155,180 l 5,0 0,5 -5,0 z M 160,180 l 5,0 0,5 -5,0 z M 165,180 l 5,0 0,5 -5,0 z M 180,180 l 5,0 0,5 -5,0 z M 190,180 l 5,0 0,5 -5,0 z M 205,180 l 5,0 0,5 -5,0 z M 210,180 l 5,0 0,5 -5,0 z M 220,180 l 5,0 0,5 -5,0 z M 225,180 l 5,0 0,5 -5,0 z M 240,180 l 5,0 0,5 -5,0 z M 5,185 l 5,0 0,5 -5,0 z M 15,185 l 5,0 0,5 -5,0 z M 20,185 l 5,0 0,5 -5,0 z M 25,185 l 5,0 0,5 -5,0 z M 40,185 l 5,0 0,5 -5,0 z M 50,185 l 5,0 0,5 -5,0 z M 60,185 l 5,0 0,5 -5,0 z M 75,185 l 5,0 0,5 -5,0 z M 90,185 l 5,0 0,5 -5,0 z M 105,185 l 5,0 0,5 -5,0 z M 110,185 l 5,0 0,5 -5,0 z M 115,185 l 5,0 0,5 -5,0 z M 120,185 l 5,0 0,5 -5,0 z M 135,185 l 5,0 0,5 -5,0 z M 150,185 l 5,0 0,5 -5,0 z M 155,185 l 5,0 0,5 -5,0 z M 160,185 l 5,0 0,5 -5,0 z M 175,185 l 5,0 0,5 -5,0 z M 195,185 l 5,0 0,5 -5,0 z M 210,185 l 5,0 0,5 -5,0 z M 230,185 l 5,0 0,5 -5,0 z M 235,185 l 5,0 0,5 -5,0 z M 240,185 l 5,0 0,5 -5,0 z M 5,190 l 5,0 0,5 -5,0 z M 25,190 l 5,0 0,5 -5,0 z M 30,190 l 5,0 0,5 -5,0 z M 35,190 l 5,0 0,5 -5,0 z M 40,190 l 5,0 0,5 -5,0 z M 45,190 l 5,0 0,5 -5,0 z M 55,190 l 5,0 0,5 -5,0 z M 60,190 l 5,0 0,5 -5,0 z M 70,190 l 5,0 0,5 -5,0 z M 85,190 l 5,0 0,5 -5,0 z M 90,190 l 5,0 0,5 -5,0 z M 110,190 l 5,0 0,5 -5,0 z M 120,190 l 5,0 0,5 -5,0 z M 135,190 l 5,0 0,5 -5,0 z M 140,190 l 5,0 0,5 -5,0 z M 165,190 l 5,0 0,5 -5,0 z M 170,190 l 5,0 0,5 -5,0 z M 185,190 l 5,0 0,5 -5,0 z M 195,190 l 5,0 0,5 -5,0 z M 210,190 l 5,0 0,5 -5,0 z M 225,190 l 5,0 0,5 -5,0 z M 240,190 l 5,0 0,5 -5,0 z M 5,195 l 5,0 0,5 -5,0 z M 10,195 l 5,0 0,5 -5,0 z M 15,195 l 5,0 0,5 -5,0 z M 40,195 l 5,0 0,5 -5,0 z M 45,195 l 5,0 0,5 -5,0 z M 50,195 l 5,0 0,5 -5,0 z M 60,195 l 5,0 0,5 -5,0 z M 65,195 l 5,0 0,5 -5,0 z M 70,195 l 5,0 0,5 -5,0 z M 75,195 l 5,0 0,5 -5,0 z M 90,195 l 5,0 0,5 -5,0 z M 105,195 l 5,0 0,5 -5,0 z M 110,195 l 5,0 0,5 -5,0 z M 130,195 l 5,0 0,5 -5,0 z M 135,195 l 5,0 0,5 -5,0 z M 150,195 l 5,0 0,5 -5,0 z M 165,195 l 5,0 0,5 -5,0 z M 180,195 l 5,0 0,5 -5,0 z M 185,195 l 5,0 0,5 -5,0 z M 190,195 l 5,0 0,5 -5,0 z M 215,195 l 5,0 0,5 -5,0 z M 0,200 l 5,0 0,5 -5,0 z M 5,200 l 5,0 0,5 -5,0 z M 10,200 l 5,0 0,5 -5,0 z M 30,200 l 5,0 0,5 -5,0 z M 45,200 l 5,0 0,5 -5,0 z M 60,200 l 5,0 0,5 -5,0 z M 70,200 l 5,0 0,5 -5,0 z M 75,200 l 5,0 0,5 -5,0 z M 80,200 l 5,0 0,5 -5,0 z M 90,200 l 5,0 0,5 -5,0 z M 95,200 l 5,0 0,5 -5,0 z M 100,200 l 5,0 0,5 -5,0 z M 110,200 l 5,0 0,5 -5,0 z M 115,200 l 5,0 0,5 -5,0 z M 120,200 l 5,0 0,5 -5,0 z M 125,200 l 5,0 0,5 -5,0 z M 130,200 l 5,0 0,5 -5,0 z M 135,200 l 5,0 0,5 -5,0 z M 140,200 l 5,0 0,5 -5,0 z M 145,200 l 5,0 0,5 -5,0 z M 150,200 l 5,0 0,5 -5,0 z M 165,200 l 5,0 0,5 -5,0 z M 180,200 l 5,0 0,5 -5,0 z M 185,200 l 5,0 0,5 -5,0 z M 195,200 l 5,0 0,5 -5,0 z M 200,200 l 5,0 0,5 -5,0 z M 205,200 l 5,0 0,5 -5,0 z M 210,200 l 5,0 0,5 -5,0 z M 215,200 l 5,0 0,5 -5,0 z M 220,200 l 5,0 0,5 -5,0 z M 225,200 l 5,0 0,5 -5,0 z M 235,200 l 5,0 0,5 -5,0 z M 240,200 l 5,0 0,5 -5,0 z M 40,205 l 5,0 0,5 -5,0 z M 60,205 l 5,0 0,5 -5,0 z M 75,205 l 5,0 0,5 -5,0 z M 100,205 l 5,0 0,5 -5,0 z M 110,205 l 5,0 0,5 -5,0 z M 130,205 l 5,0 0,5 -5,0 z M 160,205 l 5,0 0,5 -5,0 z M 165,205 l 5,0 0,5 -5,0 z M 190,205 l 5,0 0,5 -5,0 z M 195,205 l 5,0 0,5 -5,0 z M 200,205 l 5,0 0,5 -5,0 z M 220,205 l 5,0 0,5 -5,0 z M 235,205 l 5,0 0,5 -5,0 z M 0,210 l 5,0 0,5 -5,0 z M 5,210 l 5,0 0,5 -5,0 z M 10,210 l 5,0 0,5 -5,0 z M 15,210 l 5,0 0,5 -5,0 z M 20,210 l 5,0 0,5 -5,0 z M 25,210 l 5,0 0,5 -5,0 z M 30,210 l 5,0 0,5 -5,0 z M 40,210 l 5,0 0,5 -5,0 z M 50,210 l 5,0 0,5 -5,0 z M 55,210 l 5,0 0,5 -5,0 z M 75,210 l 5,0 0,5 -5,0 z M 90,210 l 5,0 0,5 -5,0 z M 95,210 l 5,0 0,5 -5,0 z M 100,210 l 5,0 0,5 -5,0 z M 105,210 l 5,0 0,5 -5,0 z M 110,210 l 5,0 0,5 -5,0 z M 120,210 l 5,0 0,5 -5,0 z M 130,210 l 5,0 0,5 -5,0 z M 140,210 l 5,0 0,5 -5,0 z M 145,210 l 5,0 0,5 -5,0 z M 150,210 l 5,0 0,5 -5,0 z M 160,210 l 5,0 0,5 -5,0 z M 165,210 l 5,0 0,5 -5,0 z M 180,210 l 5,0 0,5 -5,0 z M 190,210 l 5,0 0,5 -5,0 z M 200,210 l 5,0 0,5 -5,0 z M 210,210 l 5,0 0,5 -5,0 z M 220,210 l 5,0 0,5 -5,0 z M 240,210 l 5,0 0,5 -5,0 z M 0,215 l 5,0 0,5 -5,0 z M 30,215 l 5,0 0,5 -5,0 z M 65,215 l 5,0 0,5 -5,0 z M 85,215 l 5,0 0,5 -5,0 z M 90,215 l 5,0 0,5 -5,0 z M 95,215 l 5,0 0,5 -5,0 z M 100,215 l 5,0 0,5 -5,0 z M 105,215 l 5,0 0,5 -5,0 z M 110,215 l 5,0 0,5 -5,0 z M 130,215 l 5,0 0,5 -5,0 z M 135,215 l 5,0 0,5 -5,0 z M 145,215 l 5,0 0,5 -5,0 z M 160,215 l 5,0 0,5 -5,0 z M 165,215 l 5,0 0,5 -5,0 z M 180,215 l 5,0 0,5 -5,0 z M 185,215 l 5,0 0,5 -5,0 z M 190,215 l 5,0 0,5 -5,0 z M 200,215 l 5,0 0,5 -5,0 z M 220,215 l 5,0 0,5 -5,0 z M 225,215 l 5,0 0,5 -5,0 z M 240,215 l 5,0 0,5 -5,0 z M 0,220 l 5,0 0,5 -5,0 z M 10,220 l 5,0 0,5 -5,0 z M 15,220 l 5,0 0,5 -5,0 z M 20,220 l 5,0 0,5 -5,0 z M 30,220 l 5,0 0,5 -5,0 z M 40,220 l 5,0 0,5 -5,0 z M 50,220 l 5,0 0,5 -5,0 z M 60,220 l 5,0 0,5 -5,0 z M 75,220 l 5,0 0,5 -5,0 z M 90,220 l 5,0 0,5 -5,0 z M 105,220 l 5,0 0,5 -5,0 z M 110,220 l 5,0 0,5 -5,0 z M 115,220 l 5,0 0,5 -5,0 z M 120,220 l 5,0 0,5 -5,0 z M 125,220 l 5,0 0,5 -5,0 z M 130,220 l 5,0 0,5 -5,0 z M 135,220 l 5,0 0,5 -5,0 z M 155,220 l 5,0 0,5 -5,0 z M 170,220 l 5,0 0,5 -5,0 z M 185,220 l 5,0 0,5 -5,0 z M 200,220 l 5,0 0,5 -5,0 z M 205,220 l 5,0 0,5 -5,0 z M 210,220 l 5,0 0,5 -5,0 z M 215,220 l 5,0 0,5 -5,0 z M 220,220 l 5,0 0,5 -5,0 z M 225,220 l 5,0 0,5 -5,0 z M 0,225 l 5,0 0,5 -5,0 z M 10,225 l 5,0 0,5 -5,0 z M 15,225 l 5,0 0,5 -5,0 z M 20,225 l 5,0 0,5 -5,0 z M 30,225 l 5,0 0,5 -5,0 z M 40,225 l 5,0 0,5 -5,0 z M 45,225 l 5,0 0,5 -5,0 z M 50,225 l 5,0 0,5 -5,0 z M 55,225 l 5,0 0,5 -5,0 z M 65,225 l 5,0 0,5 -5,0 z M 80,225 l 5,0 0,5 -5,0 z M 85,225 l 5,0 0,5 -5,0 z M 90,225 l 5,0 0,5 -5,0 z M 115,225 l 5,0 0,5 -5,0 z M 140,225 l 5,0 0,5 -5,0 z M 165,225 l 5,0 0,5 -5,0 z M 180,225 l 5,0 0,5 -5,0 z M 185,225 l 5,0 0,5 -5,0 z M 200,225 l 5,0 0,5 -5,0 z M 205,225 l 5,0 0,5 -5,0 z M 225,225 l 5,0 0,5 -5,0 z M 230,225 l 5,0 0,5 -5,0 z M 240,225 l 5,0 0,5 -5,0 z M 0,230 l 5,0 0,5 -5,0 z M 10,230 l 5,0 0,5 -5,0 z M 15,230 l 5,0 0,5 -5,0 z M 20,230 l 5,0 0,5 -5,0 z M 30,230 l 5,0 0,5 -5,0 z M 40,230 l 5,0 0,5 -5,0 z M 45,230 l 5,0 0,5 -5,0 z M 65,230 l 5,0 0,5 -5,0 z M 70,230 l 5,0 0,5 -5,0 z M 75,230 l 5,0 0,5 -5,0 z M 80,230 l 5,0 0,5 -5,0 z M 85,230 l 5,0 0,5 -5,0 z M 115,230 l 5,0 0,5 -5,0 z M 120,230 l 5,0 0,5 -5,0 z M 135,230 l 5,0 0,5 -5,0 z M 140,230 l 5,0 0,5 -5,0 z M 150,230 l 5,0 0,5 -5,0 z M 155,230 l 5,0 0,5 -5,0 z M 170,230 l 5,0 0,5 -5,0 z M 185,230 l 5,0 0,5 -5,0 z M 230,230 l 5,0 0,5 -5,0 z M 240,230 l 5,0 0,5 -5,0 z M 0,235 l 5,0 0,5 -5,0 z M 30,235 l 5,0 0,5 -5,0 z M 40,235 l 5,0 0,5 -5,0 z M 50,235 l 5,0 0,5 -5,0 z M 55,235 l 5,0 0,5 -5,0 z M 65,235 l 5,0 0,5 -5,0 z M 80,235 l 5,0 0,5 -5,0 z M 95,235 l 5,0 0,5 -5,0 z M 105,235 l 5,0 0,5 -5,0 z M 115,235 l 5,0 0,5 -5,0 z M 120,235 l 5,0 0,5 -5,0 z M 135,235 l 5,0 0,5 -5,0 z M 150,235 l 5,0 0,5 -5,0 z M 155,235 l 5,0 0,5 -5,0 z M 165,235 l 5,0 0,5 -5,0 z M 190,235 l 5,0 0,5 -5,0 z M 205,235 l 5,0 0,5 -5,0 z M 0,240 l 5,0 0,5 -5,0 z M 5,240 l 5,0 0,5 -5,0 z M 10,240 l 5,0 0,5 -5,0 z M 15,240 l 5,0 0,5 -5,0 z M 20,240 l 5,0 0,5 -5,0 z M 25,240 l 5,0 0,5 -5,0 z M 30,240 l 5,0 0,5 -5,0 z M 40,240 l 5,0 0,5 -5,0 z M 50,240 l 5,0 0,5 -5,0 z M 60,240 l 5,0 0,5 -5,0 z M 65,240 l 5,0 0,5 -5,0 z M 80,240 l 5,0 0,5 -5,0 z M 90,240 l 5,0 0,5 -5,0 z M 100,240 l 5,0 0,5 -5,0 z M 105,240 l 5,0 0,5 -5,0 z M 115,240 l 5,0 0,5 -5,0 z M 140,240 l 5,0 0,5 -5,0 z M 200,240 l 5,0 0,5 -5,0 z M 220,240 l 5,0 0,5 -5,0 z M 230,240 l 5,0 0,5 -5,0 z M 240,240 l 5,0 0,5 -5,0 z " />
	</g>
</svg>
